<svg width="125" height="128" viewBox="0 0 125 128" fill="none" xmlns="http://www.w3.org/2000/svg">
<g filter="url(#filter0_d_9_1119)">
<path d="M61.558 65.9628L63.5448 63.976C63.6002 63.9205 63.628 63.8549 63.628 63.779C63.628 63.7032 63.6002 63.6375 63.5448 63.5821L63.0984 63.1357C63.043 63.0803 62.9773 63.0525 62.9015 63.0525C62.8256 63.0525 62.76 63.0803 62.7046 63.1357L61.361 64.4792L60.0175 63.1357C59.9621 63.0803 59.8964 63.0525 59.8206 63.0525C59.7447 63.0525 59.6791 63.0803 59.6236 63.1357L59.1772 63.5821C59.1218 63.6375 59.0941 63.7032 59.0941 63.779C59.0941 63.8549 59.1218 63.9205 59.1772 63.976L61.1641 65.9628C61.2195 66.0182 61.2852 66.046 61.361 66.046C61.4369 66.046 61.5025 66.0182 61.558 65.9628ZM64.2713 62.5143C64.5718 63.0277 64.722 63.5894 64.722 64.1991C64.722 64.8089 64.5718 65.372 64.2713 65.8884C63.9708 66.4019 63.5623 66.8089 63.0459 67.1094C62.5324 67.4099 61.9708 67.5602 61.361 67.5602C60.7513 67.5602 60.1882 67.4099 59.6718 67.1094C59.1583 66.8089 58.7513 66.4019 58.4508 65.8884C58.1503 65.372 58 64.8089 58 64.1991C58 63.5894 58.1503 63.0277 58.4508 62.5143C58.7513 61.9979 59.1583 61.5894 59.6718 61.2889C60.1882 60.9884 60.7513 60.8381 61.361 60.8381C61.9708 60.8381 62.5324 60.9884 63.0459 61.2889C63.5623 61.5894 63.9708 61.9979 64.2713 62.5143Z" fill="#FFA3A6"/>
</g>
<defs>
<filter id="filter0_d_9_1119" x="-2.12497" y="0.713165" width="126.972" height="126.972" filterUnits="userSpaceOnUse" color-interpolation-filters="sRGB">
<feFlood flood-opacity="0" result="BackgroundImageFix"/>
<feColorMatrix in="SourceAlpha" type="matrix" values="0 0 0 0 0 0 0 0 0 0 0 0 0 0 0 0 0 0 127 0" result="hardAlpha"/>
<feOffset/>
<feGaussianBlur stdDeviation="30.0625"/>
<feComposite in2="hardAlpha" operator="out"/>
<feColorMatrix type="matrix" values="0 0 0 0 1 0 0 0 0 0.760784 0 0 0 0 0.333333 0 0 0 1 0"/>
<feBlend mode="normal" in2="BackgroundImageFix" result="effect1_dropShadow_9_1119"/>
<feBlend mode="normal" in="SourceGraphic" in2="effect1_dropShadow_9_1119" result="shape"/>
</filter>
</defs>
</svg>
