<svg width="125" height="128" viewBox="0 0 125 128" fill="none" xmlns="http://www.w3.org/2000/svg">
<g filter="url(#filter0_d_9_1108)">
<path d="M63.0984 65.2626L63.5448 64.8162C63.6002 64.7608 63.628 64.6951 63.628 64.6193C63.628 64.5434 63.6002 64.4778 63.5448 64.4223L61.558 62.4355C61.5025 62.3801 61.4369 62.3523 61.361 62.3523C61.2852 62.3523 61.2195 62.3801 61.1641 62.4355L59.1772 64.4223C59.1218 64.4778 59.0941 64.5434 59.0941 64.6193C59.0941 64.6951 59.1218 64.7608 59.1772 64.8162L59.6236 65.2626C59.6791 65.318 59.7447 65.3457 59.8206 65.3457C59.8964 65.3457 59.9621 65.318 60.0175 65.2626L61.361 63.9191L62.7046 65.2626C62.76 65.318 62.8256 65.3457 62.9015 65.3457C62.9773 65.3457 63.043 65.318 63.0984 65.2626ZM64.2713 62.5143C64.5718 63.0277 64.722 63.5894 64.722 64.1991C64.722 64.8089 64.5718 65.372 64.2713 65.8884C63.9708 66.4019 63.5623 66.8089 63.0459 67.1094C62.5324 67.4099 61.9708 67.5602 61.361 67.5602C60.7513 67.5602 60.1882 67.4099 59.6718 67.1094C59.1583 66.8089 58.7513 66.4019 58.4508 65.8884C58.1503 65.372 58 64.8089 58 64.1991C58 63.5894 58.1503 63.0277 58.4508 62.5143C58.7513 61.9979 59.1583 61.5894 59.6718 61.2889C60.1882 60.9884 60.7513 60.8381 61.361 60.8381C61.9708 60.8381 62.5324 60.9884 63.0459 61.2889C63.5623 61.5894 63.9708 61.9979 64.2713 62.5143Z" fill="#B1FFC2"/>
</g>
<defs>
<filter id="filter0_d_9_1108" x="-2.12497" y="0.713165" width="126.972" height="126.972" filterUnits="userSpaceOnUse" color-interpolation-filters="sRGB">
<feFlood flood-opacity="0" result="BackgroundImageFix"/>
<feColorMatrix in="SourceAlpha" type="matrix" values="0 0 0 0 0 0 0 0 0 0 0 0 0 0 0 0 0 0 127 0" result="hardAlpha"/>
<feOffset/>
<feGaussianBlur stdDeviation="30.0625"/>
<feComposite in2="hardAlpha" operator="out"/>
<feColorMatrix type="matrix" values="0 0 0 0 1 0 0 0 0 0.760784 0 0 0 0 0.333333 0 0 0 1 0"/>
<feBlend mode="normal" in2="BackgroundImageFix" result="effect1_dropShadow_9_1108"/>
<feBlend mode="normal" in="SourceGraphic" in2="effect1_dropShadow_9_1108" result="shape"/>
</filter>
</defs>
</svg>
